<svg width="512" height="512" viewBox="0 0 512 512" fill="none" xmlns="http://www.w3.org/2000/svg">
<rect width="512" height="512" fill="url(#paint0_radial_30_37)"/>
<path d="M256 270.444C295.695 270.444 327.875 238.109 327.875 198.222C327.875 158.335 295.695 126 256 126C216.305 126 184.125 158.335 184.125 198.222C184.125 238.109 216.305 270.444 256 270.444Z" fill="url(#paint1_linear_30_37)"/>
<path d="M371 386C371 355.353 358.884 325.961 337.317 304.29C315.751 282.619 286.5 270.444 256 270.444C225.5 270.444 196.249 282.619 174.683 304.29C153.116 325.961 141 355.353 141 386" fill="url(#paint2_linear_30_37)"/>
<defs>
<radialGradient id="paint0_radial_30_37" cx="0" cy="0" r="1" gradientUnits="userSpaceOnUse" gradientTransform="translate(256 256) rotate(-135) scale(362.039)">
<stop stop-color="#6BAE60"/>
<stop offset="1" stop-color="#7AFF64"/>
</radialGradient>
<linearGradient id="paint1_linear_30_37" x1="256" y1="126" x2="256" y2="518" gradientUnits="userSpaceOnUse">
<stop stop-color="white"/>
<stop offset="1" stop-color="white" stop-opacity="0.6"/>
</linearGradient>
<linearGradient id="paint2_linear_30_37" x1="256" y1="270.444" x2="256" y2="386" gradientUnits="userSpaceOnUse">
<stop stop-color="white"/>
<stop offset="1" stop-color="white" stop-opacity="0.6"/>
</linearGradient>
</defs>
</svg>
