<svg width="16" height="16" viewBox="0 0 16 16" fill="none" xmlns="http://www.w3.org/2000/svg">
<g clip-path="url(#clip0_2_9)">
<path d="M0 0H16V16H0V0ZM6.4 0H9.6C13.8667 0 16 2.13333 16 6.4V9.6C16 13.8667 13.8667 16 9.6 16H6.4C2.13333 16 0 13.8667 0 9.6V6.4C0 2.13333 2.13333 0 6.4 0Z" fill="url(#paint0_linear_2_9)"/>
<g filter="url(#filter0_ddii_2_9)">
<path d="M4.80625 3.125C3.38958 4.29167 2.80625 5.20833 3.05625 5.875C4.38958 9.20833 6.72292 11.5417 10.0563 12.875C10.7229 13.125 11.6396 12.5417 12.8062 11.125C12.9729 10.9583 12.9729 10.7917 12.8062 10.625L11.3062 9.125C11.1396 8.95833 10.9729 8.95833 10.8063 9.125C9.80625 9.91667 9.13958 10.25 8.80625 10.125C7.30625 9.625 6.30625 8.625 5.80625 7.125C5.68125 6.79167 6.09792 6.20833 7.05625 5.375C7.22292 5.20833 7.22292 5.04167 7.05625 4.875L5.30625 3.125C5.13958 2.95833 4.97292 2.95833 4.80625 3.125Z" fill="white"/>
</g>
</g>
<defs>
<filter id="filter0_ddii_2_9" x="-1" y="1.5" width="17.9312" height="19.4313" filterUnits="userSpaceOnUse" color-interpolation-filters="sRGB">
<feFlood flood-opacity="0" result="BackgroundImageFix"/>
<feColorMatrix in="SourceAlpha" type="matrix" values="0 0 0 0 0 0 0 0 0 0 0 0 0 0 0 0 0 0 127 0" result="hardAlpha"/>
<feOffset dy="4"/>
<feGaussianBlur stdDeviation="2"/>
<feComposite in2="hardAlpha" operator="out"/>
<feColorMatrix type="matrix" values="0 0 0 0 0 0 0 0 0 0 0 0 0 0 0 0 0 0 0.25 0"/>
<feBlend mode="normal" in2="BackgroundImageFix" result="effect1_dropShadow_2_9"/>
<feColorMatrix in="SourceAlpha" type="matrix" values="0 0 0 0 0 0 0 0 0 0 0 0 0 0 0 0 0 0 127 0" result="hardAlpha"/>
<feOffset dy="0.5"/>
<feGaussianBlur stdDeviation="1"/>
<feComposite in2="hardAlpha" operator="out"/>
<feColorMatrix type="matrix" values="0 0 0 0 0 0 0 0 0 0 0 0 0 0 0 0 0 0 0.4 0"/>
<feBlend mode="normal" in2="effect1_dropShadow_2_9" result="effect2_dropShadow_2_9"/>
<feBlend mode="normal" in="SourceGraphic" in2="effect2_dropShadow_2_9" result="shape"/>
<feColorMatrix in="SourceAlpha" type="matrix" values="0 0 0 0 0 0 0 0 0 0 0 0 0 0 0 0 0 0 127 0" result="hardAlpha"/>
<feOffset dy="-1"/>
<feGaussianBlur stdDeviation="0.6"/>
<feComposite in2="hardAlpha" operator="arithmetic" k2="-1" k3="1"/>
<feColorMatrix type="matrix" values="0 0 0 0 0.25098 0 0 0 0 0.12549 0 0 0 0 0 0 0 0 0.25 0"/>
<feBlend mode="normal" in2="shape" result="effect3_innerShadow_2_9"/>
<feColorMatrix in="SourceAlpha" type="matrix" values="0 0 0 0 0 0 0 0 0 0 0 0 0 0 0 0 0 0 127 0" result="hardAlpha"/>
<feOffset dy="-0.5"/>
<feGaussianBlur stdDeviation="0.5"/>
<feComposite in2="hardAlpha" operator="arithmetic" k2="-1" k3="1"/>
<feColorMatrix type="matrix" values="0 0 0 0 0.501961 0 0 0 0 1 0 0 0 0 0.376471 0 0 0 0.5 0"/>
<feBlend mode="normal" in2="effect3_innerShadow_2_9" result="effect4_innerShadow_2_9"/>
</filter>
<linearGradient id="paint0_linear_2_9" x1="0" y1="0" x2="0" y2="16" gradientUnits="userSpaceOnUse">
<stop stop-color="#80FF60"/>
<stop offset="1" stop-color="#408020"/>
</linearGradient>
<clipPath id="clip0_2_9">
<rect width="16" height="16" fill="white"/>
</clipPath>
</defs>
</svg>
