<svg width="512" height="512" viewBox="0 0 512 512" fill="none" xmlns="http://www.w3.org/2000/svg">
<rect width="512" height="512" fill="url(#paint0_radial_30_25)"/>
<path d="M370.993 313.199V347.823C371.006 351.038 370.346 354.219 369.056 357.164C367.766 360.11 365.873 362.753 363.5 364.926C361.127 367.099 358.325 368.754 355.274 369.783C352.223 370.813 348.99 371.196 345.783 370.906C310.197 367.047 276.015 354.912 245.982 335.474C218.041 317.754 194.352 294.112 176.596 266.226C157.052 236.116 144.89 201.836 141.094 166.161C140.805 162.97 141.185 159.753 142.21 156.716C143.235 153.679 144.882 150.889 147.047 148.522C149.212 146.155 151.846 144.264 154.784 142.969C157.721 141.674 160.896 141.004 164.107 141.001H198.8C204.412 140.946 209.853 142.929 214.108 146.582C218.364 150.234 221.143 155.306 221.929 160.852C223.393 171.933 226.109 182.813 230.024 193.284C231.58 197.415 231.916 201.904 230.994 206.22C230.072 210.536 227.929 214.498 224.82 217.636L210.133 232.294C226.595 261.188 250.567 285.112 279.519 301.542L294.206 286.885C297.35 283.782 301.32 281.643 305.644 280.723C309.969 279.802 314.467 280.138 318.606 281.691C329.098 285.598 340 288.309 351.102 289.77C356.72 290.561 361.85 293.385 365.518 297.705C369.185 302.025 371.134 307.539 370.993 313.199Z" fill="url(#paint1_linear_30_25)"/>
<defs>
<radialGradient id="paint0_radial_30_25" cx="0" cy="0" r="1" gradientUnits="userSpaceOnUse" gradientTransform="translate(256 256) rotate(-135) scale(362.039)">
<stop stop-color="#6BAE60"/>
<stop offset="1" stop-color="#7AFF64"/>
</radialGradient>
<linearGradient id="paint1_linear_30_25" x1="256" y1="141" x2="256" y2="371" gradientUnits="userSpaceOnUse">
<stop stop-color="white"/>
<stop offset="1" stop-color="white" stop-opacity="0.6"/>
</linearGradient>
</defs>
</svg>
