<svg width="512" height="512" viewBox="0 0 512 512" fill="none" xmlns="http://www.w3.org/2000/svg">
<g clip-path="url(#clip0_30_23)">
<rect width="512" height="512" fill="url(#paint0_radial_30_23)"/>
<path d="M204.97 347.182V165.364H216.618V347.182H204.97ZM244.175 219.909C243.322 212.712 239.866 207.125 233.805 203.148C227.745 199.17 220.311 197.182 211.504 197.182C205.065 197.182 199.43 198.223 194.601 200.307C189.819 202.39 186.078 205.255 183.379 208.901C180.728 212.546 179.402 216.689 179.402 221.33C179.402 225.212 180.325 228.55 182.172 231.344C184.066 234.09 186.481 236.386 189.416 238.233C192.352 240.032 195.429 241.524 198.649 242.707C201.869 243.844 204.828 244.767 207.527 245.477L222.3 249.455C226.088 250.449 230.302 251.822 234.942 253.574C239.629 255.326 244.104 257.717 248.365 260.747C252.674 263.73 256.225 267.565 259.018 272.253C261.812 276.94 263.209 282.693 263.209 289.511C263.209 297.371 261.149 304.473 257.03 310.818C252.958 317.163 246.992 322.205 239.132 325.946C231.32 329.687 221.826 331.557 210.652 331.557C200.235 331.557 191.215 329.876 183.592 326.514C176.017 323.152 170.051 318.465 165.695 312.452C161.386 306.438 158.947 299.455 158.379 291.5H176.561C177.035 296.992 178.881 301.538 182.101 305.136C185.368 308.687 189.487 311.339 194.459 313.091C199.478 314.795 204.875 315.648 210.652 315.648C217.375 315.648 223.412 314.559 228.763 312.381C234.113 310.155 238.351 307.078 241.476 303.148C244.601 299.17 246.163 294.53 246.163 289.227C246.163 284.398 244.814 280.468 242.115 277.438C239.416 274.407 235.865 271.945 231.462 270.051C227.058 268.157 222.3 266.5 217.186 265.08L199.288 259.966C187.925 256.699 178.929 252.035 172.3 245.974C165.671 239.914 162.357 231.983 162.357 222.182C162.357 214.038 164.558 206.936 168.962 200.875C173.412 194.767 179.378 190.032 186.859 186.67C194.388 183.261 202.792 181.557 212.072 181.557C221.447 181.557 229.781 183.238 237.072 186.599C244.364 189.914 250.141 194.459 254.402 200.236C258.711 206.012 260.983 212.57 261.22 219.909H244.175ZM365.18 329V344.625H274.271V329H365.18Z" fill="url(#paint1_linear_30_23)"/>
</g>
<defs>
<radialGradient id="paint0_radial_30_23" cx="0" cy="0" r="1" gradientUnits="userSpaceOnUse" gradientTransform="translate(256 256) rotate(-135) scale(362.039)">
<stop/>
<stop offset="1" stop-color="#464646"/>
</radialGradient>
<linearGradient id="paint1_linear_30_23" x1="256" y1="0" x2="256" y2="512" gradientUnits="userSpaceOnUse">
<stop stop-color="white"/>
<stop offset="1" stop-color="white" stop-opacity="0.6"/>
</linearGradient>
<clipPath id="clip0_30_23">
<rect width="512" height="512" fill="white"/>
</clipPath>
</defs>
</svg>
