<svg width="16" height="16" viewBox="0 0 16 16" fill="none" xmlns="http://www.w3.org/2000/svg">
<g clip-path="url(#clip0_6_4)">
<path d="M0 0H16V16H0V0ZM6.4 0H9.6C13.8667 0 16 2.13333 16 6.4V9.6C16 13.8667 13.8667 16 9.6 16H6.4C2.13333 16 0 13.8667 0 9.6V6.4C0 2.13333 2.13333 0 6.4 0Z" fill="url(#paint0_linear_6_4)"/>
<g filter="url(#filter0_i_6_4)">
<path d="M5.25 3H10.75C11.2804 3 11.7891 3.21071 12.1642 3.58579C12.5393 3.96086 12.75 4.46957 12.75 5C12.75 5.53043 12.5393 6.03914 12.1642 6.41421C11.7891 6.78929 11.2804 7 10.75 7H5.25C4.71957 7 4.21086 6.78929 3.83579 6.41421C3.46071 6.03914 3.25 5.53043 3.25 5C3.25 4.46957 3.46071 3.96086 3.83579 3.58579C4.21086 3.21071 4.71957 3 5.25 3Z" fill="url(#paint1_linear_6_4)"/>
</g>
<g filter="url(#filter1_dii_6_4)">
<path d="M5.25 2.5C4.58696 2.5 3.95107 2.76339 3.48223 3.23223C3.01339 3.70107 2.75 4.33696 2.75 5C2.75 5.66304 3.01339 6.29893 3.48223 6.76777C3.95107 7.23661 4.58696 7.5 5.25 7.5C5.91304 7.5 6.54893 7.23661 7.01777 6.76777C7.48661 6.29893 7.75 5.66304 7.75 5C7.75 4.33696 7.48661 3.70107 7.01777 3.23223C6.54893 2.76339 5.91304 2.5 5.25 2.5Z" fill="white"/>
</g>
<g filter="url(#filter2_i_6_4)">
<path d="M5.25 9H10.75C11.2804 9 11.7891 9.21071 12.1642 9.58579C12.5393 9.96086 12.75 10.4696 12.75 11C12.75 11.5304 12.5393 12.0391 12.1642 12.4142C11.7891 12.7893 11.2804 13 10.75 13H5.25C4.71957 13 4.21086 12.7893 3.83579 12.4142C3.46071 12.0391 3.25 11.5304 3.25 11C3.25 10.4696 3.46071 9.96086 3.83579 9.58579C4.21086 9.21071 4.71957 9 5.25 9Z" fill="url(#paint2_linear_6_4)"/>
</g>
<g filter="url(#filter3_dii_6_4)">
<path d="M10.75 8.5C10.087 8.5 9.45107 8.76339 8.98223 9.23223C8.51339 9.70107 8.25 10.337 8.25 11C8.25 11.663 8.51339 12.2989 8.98223 12.7678C9.45107 13.2366 10.087 13.5 10.75 13.5C11.413 13.5 12.0489 13.2366 12.5178 12.7678C12.9866 12.2989 13.25 11.663 13.25 11C13.25 10.337 12.9866 9.70107 12.5178 9.23223C12.0489 8.76339 11.413 8.5 10.75 8.5Z" fill="white"/>
</g>
</g>
<defs>
<filter id="filter0_i_6_4" x="3.25" y="3" width="9.5" height="6" filterUnits="userSpaceOnUse" color-interpolation-filters="sRGB">
<feFlood flood-opacity="0" result="BackgroundImageFix"/>
<feBlend mode="normal" in="SourceGraphic" in2="BackgroundImageFix" result="shape"/>
<feColorMatrix in="SourceAlpha" type="matrix" values="0 0 0 0 0 0 0 0 0 0 0 0 0 0 0 0 0 0 127 0" result="hardAlpha"/>
<feOffset dy="2"/>
<feGaussianBlur stdDeviation="1"/>
<feComposite in2="hardAlpha" operator="arithmetic" k2="-1" k3="1"/>
<feColorMatrix type="matrix" values="0 0 0 0 0 0 0 0 0 0 0 0 0 0 0 0 0 0 0.25 0"/>
<feBlend mode="normal" in2="shape" result="effect1_innerShadow_6_4"/>
</filter>
<filter id="filter1_dii_6_4" x="0.75" y="0.5" width="9" height="9.5" filterUnits="userSpaceOnUse" color-interpolation-filters="sRGB">
<feFlood flood-opacity="0" result="BackgroundImageFix"/>
<feColorMatrix in="SourceAlpha" type="matrix" values="0 0 0 0 0 0 0 0 0 0 0 0 0 0 0 0 0 0 127 0" result="hardAlpha"/>
<feOffset dy="0.5"/>
<feGaussianBlur stdDeviation="1"/>
<feComposite in2="hardAlpha" operator="out"/>
<feColorMatrix type="matrix" values="0 0 0 0 0 0 0 0 0 0 0 0 0 0 0 0 0 0 0.4 0"/>
<feBlend mode="normal" in2="BackgroundImageFix" result="effect1_dropShadow_6_4"/>
<feBlend mode="normal" in="SourceGraphic" in2="effect1_dropShadow_6_4" result="shape"/>
<feColorMatrix in="SourceAlpha" type="matrix" values="0 0 0 0 0 0 0 0 0 0 0 0 0 0 0 0 0 0 127 0" result="hardAlpha"/>
<feOffset dy="-2"/>
<feGaussianBlur stdDeviation="1"/>
<feComposite in2="hardAlpha" operator="arithmetic" k2="-1" k3="1"/>
<feColorMatrix type="matrix" values="0 0 0 0 0 0 0 0 0 0 0 0 0 0 0 0 0 0 0.25 0"/>
<feBlend mode="normal" in2="shape" result="effect2_innerShadow_6_4"/>
<feColorMatrix in="SourceAlpha" type="matrix" values="0 0 0 0 0 0 0 0 0 0 0 0 0 0 0 0 0 0 127 0" result="hardAlpha"/>
<feOffset dy="-1"/>
<feGaussianBlur stdDeviation="0.5"/>
<feComposite in2="hardAlpha" operator="arithmetic" k2="-1" k3="1"/>
<feColorMatrix type="matrix" values="0 0 0 0 0.690196 0 0 0 0 0.866667 0 0 0 0 1 0 0 0 0.5 0"/>
<feBlend mode="normal" in2="effect2_innerShadow_6_4" result="effect3_innerShadow_6_4"/>
</filter>
<filter id="filter2_i_6_4" x="3.25" y="9" width="9.5" height="6" filterUnits="userSpaceOnUse" color-interpolation-filters="sRGB">
<feFlood flood-opacity="0" result="BackgroundImageFix"/>
<feBlend mode="normal" in="SourceGraphic" in2="BackgroundImageFix" result="shape"/>
<feColorMatrix in="SourceAlpha" type="matrix" values="0 0 0 0 0 0 0 0 0 0 0 0 0 0 0 0 0 0 127 0" result="hardAlpha"/>
<feOffset dy="2"/>
<feGaussianBlur stdDeviation="1"/>
<feComposite in2="hardAlpha" operator="arithmetic" k2="-1" k3="1"/>
<feColorMatrix type="matrix" values="0 0 0 0 0 0 0 0 0 0 0 0 0 0 0 0 0 0 0.25 0"/>
<feBlend mode="normal" in2="shape" result="effect1_innerShadow_6_4"/>
</filter>
<filter id="filter3_dii_6_4" x="6.25" y="6.5" width="9" height="9.5" filterUnits="userSpaceOnUse" color-interpolation-filters="sRGB">
<feFlood flood-opacity="0" result="BackgroundImageFix"/>
<feColorMatrix in="SourceAlpha" type="matrix" values="0 0 0 0 0 0 0 0 0 0 0 0 0 0 0 0 0 0 127 0" result="hardAlpha"/>
<feOffset dy="0.5"/>
<feGaussianBlur stdDeviation="1"/>
<feComposite in2="hardAlpha" operator="out"/>
<feColorMatrix type="matrix" values="0 0 0 0 0 0 0 0 0 0 0 0 0 0 0 0 0 0 0.4 0"/>
<feBlend mode="normal" in2="BackgroundImageFix" result="effect1_dropShadow_6_4"/>
<feBlend mode="normal" in="SourceGraphic" in2="effect1_dropShadow_6_4" result="shape"/>
<feColorMatrix in="SourceAlpha" type="matrix" values="0 0 0 0 0 0 0 0 0 0 0 0 0 0 0 0 0 0 127 0" result="hardAlpha"/>
<feOffset dy="-2"/>
<feGaussianBlur stdDeviation="1"/>
<feComposite in2="hardAlpha" operator="arithmetic" k2="-1" k3="1"/>
<feColorMatrix type="matrix" values="0 0 0 0 0 0 0 0 0 0 0 0 0 0 0 0 0 0 0.25 0"/>
<feBlend mode="normal" in2="shape" result="effect2_innerShadow_6_4"/>
<feColorMatrix in="SourceAlpha" type="matrix" values="0 0 0 0 0 0 0 0 0 0 0 0 0 0 0 0 0 0 127 0" result="hardAlpha"/>
<feOffset dy="-1"/>
<feGaussianBlur stdDeviation="0.5"/>
<feComposite in2="hardAlpha" operator="arithmetic" k2="-1" k3="1"/>
<feColorMatrix type="matrix" values="0 0 0 0 0.690196 0 0 0 0 0.866667 0 0 0 0 1 0 0 0 0.5 0"/>
<feBlend mode="normal" in2="effect2_innerShadow_6_4" result="effect3_innerShadow_6_4"/>
</filter>
<linearGradient id="paint0_linear_6_4" x1="0" y1="0" x2="0" y2="16" gradientUnits="userSpaceOnUse">
<stop stop-color="#E7E9EC"/>
<stop offset="1" stop-color="#B0DDFF"/>
</linearGradient>
<linearGradient id="paint1_linear_6_4" x1="3.25" y1="3" x2="3.25" y2="7" gradientUnits="userSpaceOnUse">
<stop stop-color="#6A7A8A"/>
<stop offset="1" stop-color="#A6B6C6"/>
</linearGradient>
<linearGradient id="paint2_linear_6_4" x1="3.25" y1="9" x2="3.25" y2="13" gradientUnits="userSpaceOnUse">
<stop stop-color="#0061E0"/>
<stop offset="1" stop-color="#00A0E8"/>
</linearGradient>
<clipPath id="clip0_6_4">
<rect width="16" height="16" fill="white"/>
</clipPath>
</defs>
</svg>
