<svg width="512" height="512" viewBox="0 0 512 512" fill="none" xmlns="http://www.w3.org/2000/svg">
<rect width="512" height="512" fill="url(#paint0_radial_30_50)"/>
<path d="M348 356C354.1 356 359.95 353.521 364.263 349.108C368.577 344.696 371 338.711 371 332.471V214.824C371 208.583 368.577 202.598 364.263 198.186C359.95 193.773 354.1 191.294 348 191.294H257.15C253.303 191.333 249.509 190.384 246.113 188.534C242.718 186.684 239.831 183.993 237.715 180.706L228.4 166.588C226.306 163.335 223.455 160.664 220.103 158.816C216.751 156.968 213.003 156.001 209.195 156H164C157.9 156 152.05 158.479 147.737 162.892C143.423 167.304 141 173.289 141 179.529V332.471C141 338.711 143.423 344.696 147.737 349.108C152.05 353.521 157.9 356 164 356H348Z" fill="url(#paint1_linear_30_50)"/>
<defs>
<radialGradient id="paint0_radial_30_50" cx="0" cy="0" r="1" gradientUnits="userSpaceOnUse" gradientTransform="translate(256 256) rotate(-135) scale(362.039)">
<stop stop-color="#ADAE60"/>
<stop offset="1" stop-color="#FBFF43"/>
</radialGradient>
<linearGradient id="paint1_linear_30_50" x1="256" y1="156" x2="256" y2="356" gradientUnits="userSpaceOnUse">
<stop stop-color="white"/>
<stop offset="1" stop-color="white" stop-opacity="0.6"/>
</linearGradient>
</defs>
</svg>
