<svg width="16" height="16" viewBox="0 0 16 16" fill="none" xmlns="http://www.w3.org/2000/svg">
<g clip-path="url(#clip0_5_8)">
<path d="M0 0H16V16H0V0ZM6.4 0H9.6C13.8667 0 16 2.13333 16 6.4V9.6C16 13.8667 13.8667 16 9.6 16H6.4C2.13333 16 0 13.8667 0 9.6V6.4C0 2.13333 2.13333 0 6.4 0Z" fill="url(#paint0_linear_5_8)"/>
<g filter="url(#filter0_ddi_5_8)">
<path d="M3.83333 3.5H6.75C8.41667 3.5 7.58333 4.78571 9.25 4.78571H12.1667C12.7222 4.78571 13 5.07143 13 5.64286V11.6429C13 12.2143 12.7222 12.5 12.1667 12.5H3.83333C3.27778 12.5 3 12.2143 3 11.6429V4.35714C3 3.78571 3.27778 3.5 3.83333 3.5Z" fill="url(#paint1_linear_5_8)"/>
</g>
<g filter="url(#filter1_ii_5_8)">
<path d="M9.25 5H12.1667C12.7222 5 13 5.27778 13 5.83333V11.6667C13 12.2222 12.7222 12.5 12.1667 12.5H3.83333C3.27778 12.5 3 12.2222 3 11.6667V7.08333C3 6.52778 3.27778 6.25 3.83333 6.25H6.75C8.41667 6.25 7.58333 5 9.25 5Z" fill="#F0C060"/>
</g>
</g>
<defs>
<filter id="filter0_ddi_5_8" x="-1" y="2" width="18" height="18.5" filterUnits="userSpaceOnUse" color-interpolation-filters="sRGB">
<feFlood flood-opacity="0" result="BackgroundImageFix"/>
<feColorMatrix in="SourceAlpha" type="matrix" values="0 0 0 0 0 0 0 0 0 0 0 0 0 0 0 0 0 0 127 0" result="hardAlpha"/>
<feOffset dy="4"/>
<feGaussianBlur stdDeviation="2"/>
<feComposite in2="hardAlpha" operator="out"/>
<feColorMatrix type="matrix" values="0 0 0 0 0 0 0 0 0 0 0 0 0 0 0 0 0 0 0.25 0"/>
<feBlend mode="normal" in2="BackgroundImageFix" result="effect1_dropShadow_5_8"/>
<feColorMatrix in="SourceAlpha" type="matrix" values="0 0 0 0 0 0 0 0 0 0 0 0 0 0 0 0 0 0 127 0" result="hardAlpha"/>
<feOffset dy="0.5"/>
<feGaussianBlur stdDeviation="1"/>
<feComposite in2="hardAlpha" operator="out"/>
<feColorMatrix type="matrix" values="0 0 0 0 0 0 0 0 0 0 0 0 0 0 0 0 0 0 0.4 0"/>
<feBlend mode="normal" in2="effect1_dropShadow_5_8" result="effect2_dropShadow_5_8"/>
<feBlend mode="normal" in="SourceGraphic" in2="effect2_dropShadow_5_8" result="shape"/>
<feColorMatrix in="SourceAlpha" type="matrix" values="0 0 0 0 0 0 0 0 0 0 0 0 0 0 0 0 0 0 127 0" result="hardAlpha"/>
<feOffset dy="0.25"/>
<feGaussianBlur stdDeviation="0.125"/>
<feComposite in2="hardAlpha" operator="arithmetic" k2="-1" k3="1"/>
<feColorMatrix type="matrix" values="0 0 0 0 1 0 0 0 0 1 0 0 0 0 1 0 0 0 0.05 0"/>
<feBlend mode="normal" in2="shape" result="effect3_innerShadow_5_8"/>
</filter>
<filter id="filter1_ii_5_8" x="3" y="2.5" width="10" height="10.25" filterUnits="userSpaceOnUse" color-interpolation-filters="sRGB">
<feFlood flood-opacity="0" result="BackgroundImageFix"/>
<feBlend mode="normal" in="SourceGraphic" in2="BackgroundImageFix" result="shape"/>
<feColorMatrix in="SourceAlpha" type="matrix" values="0 0 0 0 0 0 0 0 0 0 0 0 0 0 0 0 0 0 127 0" result="hardAlpha"/>
<feOffset dy="-2.5"/>
<feGaussianBlur stdDeviation="2"/>
<feComposite in2="hardAlpha" operator="arithmetic" k2="-1" k3="1"/>
<feColorMatrix type="matrix" values="0 0 0 0 0.752941 0 0 0 0 0.407843 0 0 0 0 0.25098 0 0 0 1 0"/>
<feBlend mode="normal" in2="shape" result="effect1_innerShadow_5_8"/>
<feColorMatrix in="SourceAlpha" type="matrix" values="0 0 0 0 0 0 0 0 0 0 0 0 0 0 0 0 0 0 127 0" result="hardAlpha"/>
<feOffset dy="0.25"/>
<feGaussianBlur stdDeviation="0.125"/>
<feComposite in2="hardAlpha" operator="arithmetic" k2="-1" k3="1"/>
<feColorMatrix type="matrix" values="0 0 0 0 1 0 0 0 0 1 0 0 0 0 1 0 0 0 0.1 0"/>
<feBlend mode="normal" in2="effect1_innerShadow_5_8" result="effect2_innerShadow_5_8"/>
</filter>
<linearGradient id="paint0_linear_5_8" x1="0" y1="0" x2="0" y2="16" gradientUnits="userSpaceOnUse">
<stop stop-color="#CD4B20"/>
<stop offset="1" stop-color="#7C1B05"/>
</linearGradient>
<linearGradient id="paint1_linear_5_8" x1="3" y1="3.5" x2="3" y2="12.5" gradientUnits="userSpaceOnUse">
<stop stop-color="#C47838"/>
<stop offset="0.25" stop-color="#A05028"/>
<stop offset="1" stop-color="#A05028"/>
</linearGradient>
<clipPath id="clip0_5_8">
<rect width="16" height="16" fill="white"/>
</clipPath>
</defs>
</svg>
