<svg width="512" height="512" viewBox="0 0 512 512" fill="none" xmlns="http://www.w3.org/2000/svg">
<rect width="512" height="512" fill="url(#paint0_radial_30_29)"/>
<path d="M212.392 346.799C235.486 358.646 262.052 361.855 287.303 355.848C312.554 349.84 334.829 335.012 350.114 314.034C365.399 293.057 372.689 267.309 370.67 241.432C368.651 215.555 357.456 191.25 339.103 172.897C320.75 154.544 296.445 143.349 270.568 141.33C244.691 139.311 218.943 146.601 197.966 161.886C176.988 177.171 162.16 199.446 156.152 224.697C150.145 249.948 153.354 276.514 165.201 299.608L141 371L212.392 346.799Z" fill="url(#paint1_linear_30_29)"/>
<defs>
<radialGradient id="paint0_radial_30_29" cx="0" cy="0" r="1" gradientUnits="userSpaceOnUse" gradientTransform="translate(256 256) rotate(-135) scale(362.039)">
<stop stop-color="#6BAE60"/>
<stop offset="1" stop-color="#7AFF64"/>
</radialGradient>
<linearGradient id="paint1_linear_30_29" x1="256" y1="141" x2="256" y2="371" gradientUnits="userSpaceOnUse">
<stop stop-color="white"/>
<stop offset="1" stop-color="white" stop-opacity="0.6"/>
</linearGradient>
</defs>
</svg>
